<?xml version="1.0" encoding="utf-8"?>
<!-- Generator: Adobe Illustrator 21.1.0, SVG Export Plug-In . SVG Version: 6.00 Build 0)  -->
<svg version="1.1" id="logo" xmlns="http://www.w3.org/2000/svg" xmlns:xlink="http://www.w3.org/1999/xlink" x="0px" y="0px"
	 viewBox="0 0 1600 900" style="enable-background:new 0 0 1600 900;" xml:space="preserve">
<style type="text/css">
	.st0{fill:#971914;}
	.st1{fill:#FFFFFF;}
</style>
<rect id="background" class="st0" width="1600" height="900"/>
<g id="letters">
	<path id="m" class="st1" d="M192.7,255.7h2.9l49.9,85.1c-1.9,0-2.9,1.4-2.9,4.3c-6,0-8.9,3.4-8.9,10.1l-13-1.4v1.4
		c0,2.3-5.4,4.8-16.2,7.5l-2.9,2.9h-1.7l-5.8-7.2h-1.4V255.7z M223.6,359.8c4.4,1.9,6.8,3.8,7.2,5.8l-2.9,7.5c1.9,0,2.9-1.5,2.9-4.6
		h8.9l4.3-2.9h1.4l2.9,2.9l-2.9,4.6v1.4h2.9c5-2.1,7.5-4.1,7.5-6.1h4.3c5.8,4,8.7,8.9,8.7,14.7v1.4c-10.8,1-17.1,2.4-19,4.3h-16.2
		c0,2.1-2.4,3.2-7.2,3.2l-4.3,4.3l-7.5-1.4h-4.3l-10.4,5.8h-4.3l-2.9-2.9v-13.3l1.4-1.4l-1.4-1.4v-7.2h1.4l2.9,2.9l-1.4,1.4v1.4
		l10.4,1.4c0-1.9,3.4-3.4,10.1-4.3l-1.4-7.5h8.9v-1.4l-2.9-7.2h1.4L223.6,359.8z M261.7,397.9h5.8l1.4-1.4h1.7
		c1,8.8,3.8,13.3,8.7,13.3l1.4-1.4l2.9,8.7v10.4h-5.8v2.9h5.8l0.6,209.7H206l-6.1-1.4l-5.8,1.4l-1.4-1.4v-223
		c2.3-6,6.2-8.9,11.8-8.9c4.6,0,8-1,10.1-2.9h2.9c8.8,4,13.3,7,13.3,8.9l4.3-1.4c4,1,6.1,4.3,6.1,10.1h1.4l2.9-2.9v-2.9
		c-3.8-3.7-5.8-6.6-5.8-8.9h-7.5l-7.2-1.4v-2.9l4.3-4.3h19v2.9h6.1v-2.9l-1.7-1.4V395l8.9-4.3V397.9z M194.2,227.1h88
		c14.6,20.8,28.9,44.7,42.7,71.8h-3.2c9.6,9.2,18.5,21.4,26.5,36.6v2.9l-2.9,4.6c3.8,0.4,5.8,1.8,5.8,4.3l-1.4,1.4
		c8.8,1,13.3,5.9,13.3,14.7l-2.9,2.9h-16.2v2.9h-10.4v2.9h-8.7l-17.6,4.6v-1.4l-11.8,2.9l-2.9-2.9h-4.3c0,2.9-1.1,4.3-3.2,4.3h-1.4
		L272,359.3v-1.4h2.9c0,2.9,2.9,4.3,8.7,4.3l6.1-2.9l2.9,2.9l7.2-1.4v-2.9c-5.2,0-9.6-2.5-13.3-7.5l-7.2-1.4V346h-4.3v2.9h-6.1
		c-2.9,0-4.3-2.9-4.3-8.7c-4.2,0-11.5-10.3-21.9-30.9C213.2,262.4,197,235,194.2,227.1z M207.4,427.4c3.8,4.2,5.8,8.1,5.8,11.5h1.4
		c3.7-3.8,6.6-5.8,8.9-5.8v-2.9c-2.9,0-4.3-1-4.3-2.9H207.4z M207.4,474.1v3.2l2.9,2.9h1.4l-1.4-1.4v-1.4l1.4-1.7v-1.4H207.4z
		 M223.6,445l-1.4,1.4v1.4h5.8v-1.4L223.6,445z M248.4,430.2c0,4.4-4.9,6.8-14.7,7.2v7.5h1.4c3.8-4,7.8-6.1,11.8-6.1
		c0-3.8,1.4-5.8,4.3-5.8v-2.9H248.4z M239.7,456.5h5.8l2.9-2.9v-1.4C242.6,453.1,239.7,454.6,239.7,456.5z M251.3,357h3.2l4.3,5.8
		l-4.3,2.9h-3.2l-4.3-4.3L251.3,357z M251.3,442.1v2.9h8.9v-2.9H251.3z M252.7,246.2v1.4l3.2,2.9v-1.4L252.7,246.2z M258.8,405.1
		l-1.4,7.5v4.3h1.4c2.9-1,4.3-3.8,4.3-8.7L258.8,405.1z M273.5,395h2.9c3.8,1.5,5.8,4.9,5.8,10.1h-1.4
		C275.9,403.2,273.5,399.9,273.5,395z M273.5,438.9v1.4l2.9,3.2h1.4l-1.4-4.6H273.5z M424.7,612.6c-16.7-26.9-44.1-72.8-82.2-137.6
		c-23.9-37.3-36.6-58.8-38.4-64.3h3.2v-1.4h-3.2l-1.4,1.4c-6.7-10.6-10.1-17.5-10.1-20.8h11.5v3.2h7.5l7.2,1.4l1.4-6.1l7.5,1.4h8.7
		l8.9-5.8l4.3,2.9h1.4c0-4.8,4.4-8.2,13.3-10.1l4.3,1.4v-2.9h1.4c6.9,6.5,10.4,12.4,10.4,17.6c-2.5,0-3.9,1.9-4.3,5.8l4.3,2.9h1.4
		l-1.4-1.4v-4.3h4.3l39.8,66.9V612.6z M310.1,334.2V346c-4,0.4-6.1,1.8-6.1,4.3v1.4h8.9c0,6,1.9,8.9,5.8,8.9v-4.6l7.5,1.7h2.9
		l8.7-6.1l-1.4-1.4v-1.4c0-2.5,2-3.9,6.1-4.3v-1.4h-16.2c-8.8-2.7-13.3-5.7-13.3-8.9H310.1z M311.6,316.6l-1.4,1.4v4.6l2.9,2.9
		l2.9-2.9v-1.7L311.6,316.6z M332.1,346v5.8l-2.9,2.9h-1.4l-2.9-2.9L332.1,346z M339.6,401.7v2.9h4.3v-2.9H339.6z M352.5,412.1v1.4
		l6.1,1.4h1.4v-1.4l-2.9-2.9L352.5,412.1z M357.2,416.4v4.3l2.9-2.9v-1.4H357.2z M373,425v1.7h6.1V425H373z M380.5,425h4.3l4.3-7.2
		h-1.4C385.2,417.8,382.8,420.2,380.5,425z M386.3,498.6v2.9h1.4l2.9-2.9H386.3z M398.1,466.3h4.3v-2.9H401L398.1,466.3z M401,442.9
		l-1.4,4.3v1.4h1.4l2.9-2.9v-2.9H401z M523.9,366.8v-1.2h-16.2l-2.9-2.9c0-8.8,4.4-13.7,13.3-14.7l-1.4-1.4c0-2.5,1.9-3.9,5.8-4.3
		l-2.9-4.6v-2.9c8.1-15.2,16.9-27.4,26.5-36.6h-3.2c13.8-27.1,28.1-51.1,42.7-71.8h88c-2.9,7.9-19,35.3-48.5,82.2
		c-10.4,20.6-17.7,30.9-21.9,30.9c0,5.8-1.4,8.7-4.3,8.7l-6.1,7.2v-2.9h-4.3v2.9l-7.2,1.4c-3.7,0.2-8.1,0.3-13.3,0.3v2.9l7.2,1.4
		l2.9-2.9l6.1,2.9c5.8,0,8.7-1.4,8.7-4.3h2.9v1.4l-11.5,20.5c-0.6,3.8-6.9,14.1-19,30.9l-1.4-1.4h-3.2v1.4h3.2
		c-1.7,5.6-14.5,27-38.4,64.3c-38.1,64.8-65.5,110.7-82.2,137.6V462l39.8-66.9h4.3v4.3l-1.4,1.4h1.4l4.3-2.9
		c-0.4-3.8-1.8-5.8-4.3-5.8c0-5.2,5.5-13.7,16.4-25.7h1.4v2.9l4.3-1.4C516.2,366.4,521,366,523.9,366.8z M455.8,560.6l2.9,2.9h1.4
		v-2.9H455.8z M470.2,483h-1.4v2.9h4.3L470.2,483z M480.1,417h-1.4l4.3,7.2h4.3C485,419.4,482.6,417,480.1,417z M484.1,450.1v2.9
		l2.9,2.9h1.4v-1.4l-1.4-4.3H484.1z M488.7,424.2v1.7h6.1v-1.7H488.7z M510.6,409.8l-2.9,2.9v1.4h1.4l6.1-1.4v-1.4L510.6,409.8z
		 M507.8,415.5v1.4l2.9,2.9v-4.3H507.8z M523.9,400.8v2.9h4.3v-2.9H523.9z M544.1,345.7c3.7-2.7,2.8-3.8-2.6-3.5h-16.2v1.4
		c4,0.4,6.1,1.8,6.1,4.3v1.4l-1.4,1.4l8.7,6.1h2.9l7.5-1.7v4.6c3.8,0,5.8-3,5.8-8.9h8.9v-1.4c-3.5-0.2-7.2-0.5-11.3-0.9l-5.5-2.9
		H544.1z M532.3,368.5h-5.5c0.4,0.6,0.6,1.3,0.6,2.3h1.4L532.3,368.5z M567.5,376.3l-6.9-1.7v1.4l-17.6-4.6h-8.7v-2.9h-0.9l1.7,7.2
		h8.7l7.5-1.4l1.4,6.1l7.2-1.4h7.5V376.3z M542.9,350.9l-2.9,2.9h-1.4l-2.9-2.9v-5.8L542.9,350.9z M566,318.3v1.7l2.9,2.9l2.9-2.9
		v-4.6l-1.4-1.4L566,318.3z M580.5,377.7c-0.6-0.8-0.9-1.8-0.9-3.2h-4.3l-2,2L580.5,377.7z M579.3,640.6l-1.4-1.4l1.4-39.5v-57.4
		c4.8-5.8,10.2-8.7,16.2-8.7l-2.9-4.3v-7.5l-11.8-2.9v-13.3l2.9-2.9l-2.9-4.3v-41.3l1.4-43.9c0-6.9,13.7-31.8,41.3-74.7l1.4,1.4
		l2.9-2.9h-2.9l43.9-77.9h3.2v251c0,1.9-2,2.9-6.1,2.9v1.4c4,0,6.1,1,6.1,2.9v104.1c0,1.9-2.5,2.9-7.5,2.9v2.9h7.5v10.4l-3.2,2.9
		h-48.2l-10.4-1.4l-5.8,1.4h-13.3l-1.4-1.4l-1.4,1.4H579.3z M580.7,536.4l-1.4-1.4v-7.2l2.9-3.2h4.6l2.9,3.2v2.9
		c-1.9,3.5-4.9,5.9-8.9,7.2V536.4z M596.9,482.2v-2.9l-7.2,1.4v1.4l1.4,1.4L596.9,482.2z M610.2,593.5l-4.3-4.3l-1.4,4.3v1.4
		L610.2,593.5z M615.9,489.4l-2.9-2.9h-1.4v2.9H615.9z M611.9,257.7v1.4l3.2-2.9v-1.4L611.9,257.7z M620.6,618.6h-4.6v1.4l1.4,1.4
		L620.6,618.6z M624.9,601v-2.9h-7.5v2.9H624.9z M627.8,556.9v-5.8l-2.9,2.9L627.8,556.9z M639.6,630.5v-3.2l-2.9-2.9v6.1H639.6z
		 M646.8,606.8h2.9l-5.8-4.3H641v1.4L646.8,606.8z M652.6,383.8v-2.9h-1.4l-2.9,2.9H652.6z M652.6,568.7l8.9-4.3v-1.4h-4.3
		c-1.9,0-2.9,1.4-2.9,4.3h-3.2v1.4H652.6z M657.2,530.6l7.2-1.4v-1.4H663l-7.2,1.4v1.4H657.2z"/>
	<path id="a" class="st1" d="M924.1,227.1l146.3,413.7H963.6c-16.2-58.7-25.4-88-27.7-88H821.3l22.2-76.5H914V475
		c-19.6-61.7-33.9-112.5-42.7-152.3h-1.4c0,11.5-19.5,82.4-58.6,212.6c-11.2,38.9-18.6,61.4-22.2,67.5h-2.9v2.9l2.9,4.3l-8.7,30.9
		h-1.4l-4.3-1.4l-7.5,1.4h-7.2l-4.6-1.4l-7.2,1.4h-19l-8.9-1.4l-4.3,1.4v-1.4l-1.4,1.4h-17.6v-19l1.4-8.9l-1.4-4.3l1.4,1.4h1.4
		l1.4-1.4v-1.4h-4.3v-19l2.9-2.9h2.9l4.6,1.4v-1.4l-1.4-4.3h-3.2l-1.4,1.4l-4.3-1.4l1.4-11.8h1.4l11.8-38.1l4.3,2.9l1.4-1.4v-1.4
		l-4.3-3.2l8.7-26.3h1.7c0,1.9,1.4,2.9,4.3,2.9v8.9l2.9-3.2v-13c0-3.1,2.9-4.6,8.7-4.6v-1.4l-1.4-4.3h-2.9c-3.3,0-6.2,4.9-8.7,14.7
		h-2.9v-1.4l8.7-28h5.8v2.9h4.6v-4.3l-3.2-4.3l3.2-8.9l-1.4-1.4h-1.7c0,6.9-1,10.4-2.9,10.4h-1.4l32.3-96.9h1.4v2.9h2.9l-2.9-4.3
		c1.2-7.9,3.2-11.8,6.1-11.8l-1.7-1.4v-1.4L817,227.1H924.1z M701,621.8v4.3c4-1.3,6.1-2.8,6.1-4.3H701z M711.4,569
		c0,1.9-1.4,2.9-4.3,2.9l2.9,2.9h1.4l5.8-2.9V569H711.4z M720.1,576.2c-3.9,0-5.8,1.5-5.8,4.6h5.8v-3.2l4.6-1.4l-1.4-4.3l-1.7,1.4
		h-1.4V576.2z M721.5,516.2v1.4l7.5,2.9l-1.4-4.3H721.5z M730.5,545.3v6.1h4.3c0-1.9,1.4-2.9,4.3-2.9v-3.2l-7.2,1.7L730.5,545.3z
		 M730.5,614.3v1.7l7.2,2.9c0-1.9,1.5-2.9,4.6-2.9v-1.7l-3.2-2.9h-5.8L730.5,614.3z M739.1,524.9v2.9h6.1v-2.9H739.1z M749.5,598.4
		l-2.9,11.5l2.9,8.9l-10.4,4.3l1.7,4.3h2.9c0-2.1,1.9-4,5.8-5.8h7.2v2.9c2.7,0,4.7,3,6.1,8.9h4.3l-2.9-10.4c2.9,0,4.3-1.4,4.3-4.3
		l-2.9-8.9v-1.4h2.9v-4.3h-2.9l-2.9,2.9v1.4l1.4,13.3L751,611.4v-5.8l2.9-4.3v-1.4L749.5,598.4z M743.7,448.7v1.4l2.9,2.9l1.4-1.4
		v-2.9H743.7z M759.9,428.2c0,5.8-2,8.7-6.1,8.7l1.4,1.4v1.4c-2.9,0-4.3,2-4.3,6.1h5.8c0-7.9,2-11.8,6.1-11.8v-5.8H759.9z
		 M751,498.6v1.4l2.9-2.9v-1.4L751,498.6z M752.4,539.6v2.9h10.4V541l-4.3-1.4v1.4l-1.7-1.4H752.4z M758.5,524.9l-1.7,1.4v1.4
		l4.6,3.2h1.4v-1.4L758.5,524.9z M756.7,586.6v1.4l1.7,4.3h2.9v-5.8H756.7z M761.3,401.7v2.9l7.2-1.4v-1.4H761.3z M770,486.8
		c2.7,3.8,5.2,5.8,7.5,5.8v8.9h2.9l2.9-5.8c-1.9-4-4.8-7-8.7-8.9H770z M771.4,516.2v5.8l1.4-1.4h1.7l-1.7-4.3H771.4z M783.3,583.7
		c0,1.9-1.4,2.9-4.3,2.9c3.8,3.5,5.8,6.8,5.8,10.1h1.4l2.9-2.9v-1.4C789,587.6,787.1,584.7,783.3,583.7z M786.2,466.3l-1.4,1.4v1.4
		h4.3L786.2,466.3z M789,354.7v3.2l6.1,1.4v-1.4l-4.6-3.2H789z"/>
	<path id="f" class="st1" d="M1122.3,227.1h49.9l2.9,2.9v39.5h-2.9c0-5.8-1-8.7-2.9-8.7l-2.9,2.9v2.9c0,1.9,2.9,3.9,8.7,6.1V318
		l-10.1-1.4h-1.4v1.4l11.5,4.6v17.6h-4.3v2.9c2.9,0,4.3,1,4.3,2.9v70.4c-3.8,0-5.8,3.5-5.8,10.4l1.4,1.4l-4.3,2.9h-4.3
		c-1.9,0-2.9-2.5-2.9-7.5h-1.7c0,5-1.4,7.5-4.3,7.5h-7.2l-2.9-2.9v-6.1c2.9,0,4.3-1,4.3-2.9l-1.4-7.2l-1.4,1.4h-1.4l1.4,1.4v4.3
		l-3.2,2.9h-4.3c-4.8-1.7-7.2-6.1-7.2-13v-1.7l4.3-1.4l-2.9-8.7c3.8,0,5.8-2.5,5.8-7.5h11.8v-5.8h8.7l1.7-1.4h1.4
		c0-2.9-2-4.3-6.1-4.3l-1.4-8.9l-1.4,1.4h-1.4l1.4,1.4v3.2l-4.3,4.3l-6.1,1.4v4.3l-1.4-1.4h-2.9l-2.9,8.9l-5.8-3.2v3.2h-14.7V387
		l1.4-7.2c-2.9,0-4.3-1-4.3-2.9v-6.1l4.3-1.4c1.7,6.9,5.7,10.4,11.8,10.4v-1.4c-5-2.9-7.5-6.3-7.5-10.4l2.9-2.9l1.4,1.4h7.5v-8.7
		c0-2.1,1.4-3.2,4.3-3.2v-2.9c-5.8,0-8.7-2.9-8.7-8.7l-1.4,1.4h-1.7l-13-2.9l-1.4,1.4v-2.9c2.9,0,4.3-1.1,4.3-3.2v-4.3h-2.9v2.9
		l-7.5-1.4h-2.9v1.4h2.9v2.9l-5.8,1.7v-7.5h4.3V327l-1.4-1.4v-1.4c3.8-1.7,5.8-4.7,5.8-8.9h4.6l4.3,4.3l-2.9,3.2l2.9,8.7h2.9v-5.8
		h1.4l2.9,2.9l-1.4,1.4v1.4h2.9l8.9-2.9v-2.9c-5.6,0-11.9-3.5-19-10.4v-11.8h-2.9c0,2.3-2,5.3-6.1,8.9l-1.4-1.4h-7.2l2.9,10.1
		c0,3.1-3.9,7-11.8,11.8v1.4h-5.8v-11.5l2.9-10.4h-2.9v-5.8h2.9v4.3c7.3,0,11.3-1.9,11.8-5.8v-1.7h-1.4v3.2
		c-7.9-1-11.8-4.4-11.8-10.4l5.8-4.3h8.9l-1.4,7.2v2.9h1.4c0.2-3.8,1.2-5.8,2.9-5.8l-2.9-13.3l2.9-2.9v-1.4c-2.9,0-4.3-1-4.3-2.9
		l-1.4,1.4h-1.4l-4.6-4.3v-1.4c5,0,7.5-2,7.5-6.1l-1.4-1.4l1.4-1.4l1.4,1.4h4.3l7.5-1.4l1.4,8.9h1.4c3.3-3.1,6.2-4.6,8.7-4.6v-2.9
		l-5.8-1.4l4.3-13.3c-2.5,0-4.4-2.9-5.8-8.7l2.9-4.3l7.2,2.9l1.7-1.4l-3.2-8.9V227.1z M1103.2,227.1v4.3h1.4c0-2.3,2-3.8,6.1-4.3
		l2.9,4.3v2.9c-2.9,0-4.3,1.5-4.3,4.6l-6.1,2.9l-5.8-1.4c-1.9,4.4-3.8,6.8-5.8,7.2l-1.4-1.4h-1.7l-4.3,5.8l8.9,1.7v10.1
		c-4,0-6.1,1.4-6.1,4.3h-5.8v-16.2l1.4-13l-1.4-10.4l1.4-1.4H1103.2z M1081.3,338.5h2.9l1.4,7.5l-1.4,10.1l-2.9-2.9V338.5z
		 M1096,343.1c2.1,0,5,4.9,8.7,14.7h1.4l1.7-7.5c-3.1,0-4.6-1-4.6-2.9l7.5-1.4l7.2,4.3h1.4v4.3l-2.9,3.2h-7.2
		c0,4.4-1.5,7.8-4.6,10.1h1.4l-1.4,1.4v1.4l3.2,8.9l-4.6,2.9l-4.3-4.3h-1.4l-2.9,2.9c0,7.5,3.4,11.9,10.1,13.3v1.4l1.4-1.4h1.7
		l2.9,2.9v10.1c-5,0-7.5,1.1-7.5,3.2v1.4c1.7,3.8,5.2,5.8,10.4,5.8c0-5.8,1-8.7,2.9-8.7v1.4l4.3-1.4v-1.7c0-1.9-1.4-2.9-4.3-2.9
		l-1.4-1.4v-4.3l2.9-4.3c7.9,0,11.8,3.4,11.8,10.1c-1.9,0-2.9,2.5-2.9,7.5h-3.2v4.3c12.9,9,19.3,14.4,19.3,16.2
		c0,1.9,2.4,2.9,7.2,2.9l1.4,1.4v7.5l-1.4,7.2h1.4l7.5-2.9l1.4,1.4v-2.9c0-1.9-2-2.9-6.1-2.9c0-2.1,2.5-3.2,7.5-3.2v-1.4l8.7,3.2
		v-1.7l1.4-5.8h2.9v33.8l-1.4,10.4l1.4,13v96.9c0,3.5-1.9,7.4-5.8,11.8v2.9l1.4-1.4h4.3v1.4l-1.4,1.4l1.4,7.2v19l-8.7,8.9h-7.2
		l-4.6-2.9l1.4-1.4v-4.6l-8.7,3.2v2.9h-8.9v-6.1l6.1-2.9h1.4v-1.4l-2.9-2.9h-1.7c0,2.5-2.9,5.5-8.7,8.9l-8.9-1.7
		c1.2-6.7,2.7-10.1,4.6-10.1h7.2c0-2.9,2.5-4.3,7.5-4.3l5.8-8.9v-1.4h-5.8v-8.7h5.8l8.7,7.2h3.2v-1.4c-5,0-7.5-3-7.5-8.9v-1.4
		c4,0,7-2.4,8.9-7.2h1.4v2.9h2.9v-4.3l-2.9-11.8h-2.9l-4.6,8.9l3.2,2.9l-16.2,11.5l-4.6-1.4v1.4c0,4.4-3.8,7.4-11.5,8.9
		c-2.1-4.4-5.1-6.8-8.9-7.2v-4.6l2.9-2.9h1.4l7.5,1.4l-1.4-1.4v-1.4l2.9-8.7h-7.5l1.7,1.4v2.9h-4.6l-2.9-6.1v-1.4h-1.4
		c0,6.9-1,10.4-2.9,10.4h-2.9l-4.6-1.4v1.4l-2.9,8.7l-1.4-1.4h-1.4l-2.9,3.2c6.9,0,10.4,1.9,10.4,5.8l1.4,7.2l-11.8,1.4l1.4,1.4
		v10.4c6,0,8.9,1,8.9,2.9v8.9h-8.9c-1.7,0-3.2-3-4.3-8.9c-6.9,0-10.4-1-10.4-2.9v-10.4h2.9v-1.4c-3.8,0-5.8-1-5.8-2.9v-26.3
		l10.4-8.9h-10.4v-1.4l2.9-4.3v-4.3l-2.9-4.6v-86.5c0-1.9,1.4-2.9,4.3-2.9v-1.4c-2.9,0-4.3-1-4.3-2.9V434l2.9-2.9h1.4l1.4,1.4h1.4
		v-1.4l-7.2-7.5v-57.1h2.9l2.9,2.9h-1.4l1.4,4.6h3.2v-7.5c0-1.9,2.9-2.9,8.7-2.9v-1.4l-10.4-2.9v-3.2l1.7-1.4v-1.4l-1.7-1.4
		C1092.2,350,1094.7,347.2,1096,343.1z M1084.2,635.1l1.4,1.4v1.4l-2.9,2.9l-1.4-1.4V638L1084.2,635.1z M1088.5,530.9v2.9h3.2
		l-1.4,1.4v1.4l1.4,4.3h-1.4l-4.6,1.4v1.4h4.6c3.5-6.7,9.8-10.1,19-10.1v-2.9l-13.3,2.9l-2.9-2.9H1088.5z M1088.5,387l-1.4,4.6
		l1.4,1.4h1.7l2.9-4.6l-1.4-1.4H1088.5z M1101.8,442.9h4.3v1.4l-7.2,1.4v2.9h2.9v5.8l1.4,7.5l-8.7,2.9v-1.4l-7.5,1.4v1.4l1.4,1.4
		v1.4l14.7-2.9v2.9h2.9v-10.4h7.5l-1.4-5.8l1.4-4.3h10.1l4.6,4.3l-1.4,1.4v2.9l2.9,3.2v-4.6h2.9l5.8,6.1v1.4l-1.4,1.4l1.4,1.4v1.4
		l-1.4,7.2h2.9l1.4-11.5l1.7,1.4h2.9v-1.4c-1.9,0-2.9-2.5-2.9-7.5c-5-0.6-7.5-2-7.5-4.3l5.8-11.8h-4.3v3.2h-4.3l-1.4-1.7h-1.4
		l1.4-7.2v-1.4h-2.9l-1.4,8.7l-1.4-1.4h-1.7l-1.4,4.6h-10.1v5.8h-6.1v-2.9h3.2v-1.4l-1.4-4.6h1.4c2.3,0,4.2-3.4,5.8-10.1h-5.8
		L1101.8,442.9z M1091.7,601.3c0,2.9-1.5,4.3-4.6,4.3l3.2,2.9l-1.7,1.4v2.9h7.5v-1.4c-1.9-2.1-2.9-5.5-2.9-10.1H1091.7z
		 M1090.2,478.1v2.9l4.3,1.4l1.4-1.4v-7.5h-1.4L1090.2,478.1z M1093.1,407.4l-1.4,1.7v4.3l4.3-4.3l-1.4-1.7H1093.1z M1093.1,513.3
		l-1.4,1.4v1.4h1.4v-1.4l1.4,1.4h2.9v-1.4L1093.1,513.3z M1094.6,573.3v1.4l2.9,2.9h1.4v-2.9l-1.4-1.4H1094.6z M1096,495.7v2.9
		l4.3,4.3l7.5-2.9v-1.4l-3.2-2.9l-7.2,1.4L1096,495.7z M1096,555.7v5.8l7.2-8.7l-1.4-1.4L1096,555.7z M1098.9,516.2v1.4l4.3,4.3
		v-1.4L1098.9,516.2z M1098.9,569l2.9,2.9l4.3-1.4V569H1098.9z M1098.9,582.3v1.4l2.9,2.9l2.9-2.9L1098.9,582.3z M1106.1,278.5v2.9
		h1.7l7.2-1.4v-4.3L1106.1,278.5z M1115,462c0,4.8-1,7.2-2.9,7.2l-4.3-1.4c1.9,2.3,2.9,5.8,2.9,10.4h2.9c1.7,0,3.2-2.5,4.3-7.5
		l-1.4-1.4l5.8-2.9v2.9h1.4v-5.8L1115,462z M1112.2,523.4v1.4h5.8V522h-1.4L1112.2,523.4z M1117.9,608.5v7.5l-2.9,2.9l-2.9-8.9
		l1.4-1.4H1117.9z M1116.5,279.9v4.3h2.9v-4.3H1116.5z M1128.3,291.8v4.3h2.9v-4.3H1128.3z M1129.8,275.6v1.4h2.9l1.4-4.3h-1.4
		L1129.8,275.6z M1131.2,285.7v1.4h2.9l2.9-2.9l-1.4-1.4h-1.4L1131.2,285.7z M1132.6,251.9h1.4l4.3-4.3h-1.4L1132.6,251.9z
		 M1132.6,498.6v2.9h5.8l4.6-4.3v-1.4h-1.7L1132.6,498.6z M1144.5,255.1v7.2h-1.4l-3.2-2.9l1.4-1.4h-4.3v8.7h-2.9v2.9h2.9
		c0-3.5,4.4-5.4,13.3-5.8c2.3-3.8,4.7-5.8,7.2-5.8v-2.9H1144.5z M1154.6,357.8c0,5-1.4,7.9-4.3,8.7l-5.8-1.4l-10.4,1.4v4.3l20.5-4.3
		l2.9-2.9v-2.9L1154.6,357.8z M1153.1,307.9h-8.7l-3.2-2.9l-4.3,1.4v5.8l7.5,1.4l1.4-1.4l14.7,4.3v-1.4c0-1.9-1.5-2.9-4.6-2.9v-1.4
		l6.1-5.8h8.7l1.4-4.6l-1.4-1.4h-2.9L1153.1,307.9z M1143,237.5l-3.2,5.8h3.2l2.9-2.9L1143,237.5z M1141.3,328.4l-1.4,1.4v1.4
		l4.6,4.3l1.4-1.4h2.9c4.8,0,7.2,2,7.2,6.1h4.6v-1.7C1156.6,334.3,1150.1,330.9,1141.3,328.4z M1141.3,516.2v2.9l8.9,1.4v1.4
		c0,3.3-1.4,6.7-4.3,10.4v1.4h2.9c1.9,0,2.9-2,2.9-6.1l8.9-1.4v-7.2L1141.3,516.2z M1143,486.8v4.3h1.4l4.3-1.4v-2.9H1143z
		 M1145.9,340.2v2.9c1.9,0,2.9,1.9,2.9,5.8h2.9l-4.3-7.2v-1.4H1145.9z M1151.7,278.5l1.4,7.2h-2.9v4.6h1.4l13.3-6.1h1.4v-1.4
		l-7.2-1.4h-4.6v-2.9H1151.7z M1150.2,395.9v1.4l1.4,4.3h5.8v-2.9l-5.8-2.9H1150.2z M1151.7,350.3v4.3h2.9l-1.4-4.3H1151.7z
		 M1153.1,472.1v1.4l2.9,2.9v-4.3H1153.1z M1156,505.8l-1.4,6.1h2.9v-6.1H1156z M1162.1,558.6c0,5-2.5,7.5-7.5,7.5v1.4l11.8,1.4
		v-8.9L1162.1,558.6z M1157.5,491.1v1.4l1.7,10.4h4.3c0-4.8,2.4-7.2,7.2-7.2c-0.6-3.8-3.5-6.8-8.7-8.9L1157.5,491.1z M1160.6,463.4
		v5.8c1.3,0,2.8-1.9,4.3-5.8H1160.6z M1162.1,240.4c1.9,7.7,3.8,11.5,5.8,11.5l4.3-4.3c-1.9,0-2.9-2.4-2.9-7.2l-1.4-1.4h-1.4
		L1162.1,240.4z M1162.1,340.2h5.8l-2.9-3.2L1162.1,340.2z M1162.1,623.2v1.4h1.4c5.8-1,8.7-2.4,8.7-4.3v-1.4h-5.8L1162.1,623.2z
		 M1163.5,393l2.9,2.9h2.9v-1.4l-1.4-4.6h-1.4L1163.5,393z M1166.4,530.9l-1.4,1.4v4.3c2.9,0,4.3,1.9,4.3,5.8h4.3
		c-3.8-4.4-5.8-7.8-5.8-10.1h2.9v-1.4H1166.4z M1194.4,227.1h35.2l2.9,2.9l-2.9,2.9v4.6h1.4c2.9,0,4.3-3.5,4.3-10.4h24.8l1.4,1.4
		l1.7-1.4h19c0.6,4.8,2,7.2,4.3,7.2l1.4-1.4h1.4l-1.4-1.4v-4.3h36.6v4.3l1.4-1.4l1.4,1.4h2.9V230l-1.4-1.4v-1.4h52.8l3.2,2.9v70.4
		l-3.2,2.9h-38.1V299c-1.9,0-2.9,1.4-2.9,4.3h-83.7l-4.3-2.9l-4.3,2.9h-54.2l-3.2-2.9v-11.5l1.4-1.7l-1.4-1.4v-45.3h3.2v-4.3h-3.2
		V230L1194.4,227.1z M1192.6,384.1c6.2,0,10.6,4.4,13.3,13.3l-1.4,1.4h2.9l1.4-1.4l1.4,1.4h1.7l4.3-4.3l-7.5-7.5v-2.9h1.4l1.7,1.4
		h1.4l1.4-1.4l7.2,1.4h11.8l7.2-1.4v1.4l1.4-1.4h4.6l4.3,1.4l7.2-1.4h25.1l11.5,2.9l3.2-2.9h1.4l1.4,1.4l1.4-1.4h58.6l2.9,2.9v1.4
		h-1.4l-7.2-1.4l-1.4,1.4v1.4l11.8,3.2l1.4-4.6h2.9v26.5c-7.1-1-12.5-3.5-16.2-7.5h-8.9v-2.9h-8.7c0-3.8-2-5.8-6.1-5.8v1.4
		c2.3,8.8,4.8,13.3,7.5,13.3c2.9,0,4.3,1.4,4.3,4.3l1.4,1.4h1.4c0-3.8,1.5-5.8,4.6-5.8l4.3-2.9l8.7,5.8h3.2l1.4-1.4h1.4l1.4,10.1
		v19.3l-1.4,1.4l1.4,1.4v1.4l-1.4,10.1l-10.4-1.4l-2.9,3.2h-2.9v-1.7l-10.4,1.7h-17.6l-1.4-1.7l-1.4,1.7h-10.4l-1.4-1.7l-1.4,1.7
		h-8.7l-6.1-1.7l-5.8,1.7h-10.4l-2.9-3.2l-11.5,3.2H1225c-1.9,0-3.8-3-5.8-8.9h-1.4l-2.9,4.3l-4.6-1.4v1.4c0,3.1-2.4,4.6-7.2,4.6
		h-8.7v-3.2h7.2v-1.4l-1.4-1.4l1.4-4.3h1.4l1.4,1.4h1.4l1.4-1.4v-7.2c0-2.1-1.4-3.2-4.3-3.2l-1.4,1.4h-1.4l-4.3-1.4l1.4,1.4
		l-1.4,1.7v1.4l1.4,4.3l-2.9,7.2h-3.2v-17.6l1.4-1.4l-1.4-1.4v-30.9h1.4c2.1,0,3.7,3.9,4.6,11.8h1.4c0-6,1-9.9,2.9-11.8v-1.4
		l-8.9-8.7v-4.6l1.7-1.4l-1.7-1.4V384.1z M1203,268.1l-1.4,1.4v1.7l1.4,1.4h1.4l1.4-1.4l4.3,5.8v8.7h1.7l4.3-1.4v-1.4
		C1213.6,276.5,1209.2,271.6,1203,268.1z M1204.5,246.2l4.3,2.9l1.4-4.3l-1.4-1.4h-1.4L1204.5,246.2z M1207.4,287.1v3.2h2.9l3.2-3.2
		H1207.4z M1207.4,436.9v1.4h1.4l7.5-1.4V434h-1.4L1207.4,436.9z M1208.8,416.4v2.9h3.2c0,1.9,1.4,2.9,4.3,2.9v10.4h2.9l1.4-7.5
		C1215.1,419.3,1211.1,416.4,1208.8,416.4z M1216.3,401.7c0,5.4,2.4,9.3,7.2,11.8l7.5-10.4v-1.4h-1.4c0,1.9-2,2.9-6.1,2.9v2.9h-1.4
		v-2.9l-2.9-2.9H1216.3z M1217.7,293.2v5.8h1.4l1.4-4.3l-1.4-1.4H1217.7z M1222.1,258v5.8l2.9-2.9V258H1222.1z M1233.9,428.2
		l2.9,4.3l-7.2,2.9c0,1.5,1.9,3,5.8,4.3c0-1.5,2.4-3,7.2-4.3l1.4,1.4l-1.4-5.8l-1.4,1.4h-2.9v-4.3H1233.9z M1239.7,389.8v1.7
		l4.3-1.7V387h-1.4L1239.7,389.8z M1239.7,410.6v1.4l1.4,4.3h1.4l3.2-2.9L1239.7,410.6z M1244,398.8v4.3h3.2v-1.4L1244,398.8z
		 M1245.7,388.4v3.2h1.4l4.3-1.7V387h-1.4L1245.7,388.4z M1251.5,284.3v2.9h2.9l2.9-2.9H1251.5z M1254.4,251.9l-1.4,6.1h2.9l2.9-2.9
		L1254.4,251.9z M1274.9,450.1v4.3h1.4l4.6-1.4v-1.4L1274.9,450.1z M1286.7,287.1l-2.9,8.9h1.4l4.3-4.3v-4.6H1286.7z M1286.7,407.4
		v3.2h7.2v-3.2l-1.4,1.7h-1.4L1286.7,407.4z M1295.4,431.1v5.8l4.6,1.4l2.9-8.7L1295.4,431.1z M1304.3,393c2.9,0,6.3,1.9,10.4,5.8
		c0-2.9,1.4-4.3,4.3-4.3c0,1.5,3.4,3.9,10.1,7.2v-2.9c-4.6,0-8.9-3-13-8.9h-8.9L1304.3,393z M1307.2,296.1v2.9l2.9,2.9v-5.8H1307.2z
		 M1308.6,265.2h4.3v-4.3L1308.6,265.2z M1313,435.4v2.9l4.6,10.4h1.4v-8.9c-1.9,0-2.9-1.4-2.9-4.3H1313z M1316.1,450.1
		c0,2.9-1.1,4.3-3.2,4.3v2.9l6.1-2.9v-4.3H1316.1z M1326.2,247.6c0,4-2.9,6.1-8.7,6.1l-1.4-1.7l-1.4,6.1h8.7l4.3-8.9v-1.4H1326.2z
		 M1316.1,413.5l1.4,5.8h2.9l2.9-2.9l-2.9-2.9H1316.1z M1317.6,422.2v6.1h1.4v-6.1H1317.6z M1345.3,425l1.4,7.5l4.6-4.3l-3.2-3.2
		H1345.3z"/>
</g>
</svg>
